<svg height="50pt" preserveAspectRatio="xMidYMid meet" viewBox="0 0 190 50" width="190pt" xmlns="http://www.w3.org/2000/svg"><g transform="matrix(.1 0 0 -.1 0 50)"><path d="m293 368c-11-13-42-60-69-105-46-77-72-106-60-65 3 9 8 51 12 92l7 74-24-15c-43-29-67-191-33-220 25-20 42-3 104 107 31 55 65 112 74 127 22 33 17 35-11 5z"/><path d="m1188 363c-10-2-22-21-28-44-15-53-18-181-5-185 6-2 25 22 43 53l33 58-7-47c-6-47-6-48 20-48 25 0 55 36 81 95 7 15 10 7 14-37 4-38 13-64 26-78 20-19 20-19 20 80 0 141-21 156-75 52l-30-57 7 40c11 66 9 89-9 93-11 2-28-17-54-64-21-37-39-63-41-57s7 43 20 82c23 70 22 74-15 64z"/><path d="m944 298c-11-13-25-35-32-50-9-23-101-88-124-88-3 0-1 16 5 35 8 27 8 38-2 48-10 9-18 5-41-23-36-44-48-34-21 16 26 49 26 56-1 52-14-2-30-17-43-41-17-32-80-87-100-87-4 0-4 22 0 49 10 74-27 82-75 16-33-46-42-44-25 5 9 25 10 42 4 46-14 8-37-14-41-39-4-27-63-67-99-67-31 0-38 17-17 38 7 7 13 20 13 29s7 19 15 21c13 5 13 3 1-11-15-19-1-23 17-5 21 21 14 38-15 38-35-1-59-19-73-55-24-64 22-91 101-58 39 17 49 18 53 7 8-22 27-17 62 17l31 30 7-39c3-22 12-42 20-45s31 7 53 23c39 30 63 38 63 20 0-20 31-22 50-5 17 15 20 16 20 3 0-9 7-21 16-29 13-11 22-9 58 9 23 13 54 34 68 47 15 14 29 25 31 25 10 0 15-40 6-46-5-3-9-16-9-30 0-16 6-24 18-24 26 0 42 20 42 50 0 22 9 31 55 55 31 15 54 30 52 32-3 2-30-8-61-24-68-33-87-24-61 27 21 41 7 59-21 28z"/><path d="m1643 258c-11-13-23-32-27-42-10-27 19-66 50-66 26 0 98 33 109 50 9 15-1 12-37-10-38-23-88-27-88-6 0 7 16 26 35 40 19 15 35 34 35 42 0 23-54 17-77-8zm57-2c0-2-8-10-17-17-16-13-17-12-4 4s21 21 21 13z"/><path d="m1422 258c-14-14-16-67-3-87 8-12 14-13 36-3 23 11 29 10 40-4 14-21 51-14 86 16l24 20-37-15c-53-21-61-19-45 13 28 53 30 72 10 72-11 0-24-5-30-11-8-8-13-8-17 0-9 15-49 14-64-1zm68-33c0-14-37-41-46-33-6 6 26 48 37 48 5 0 9-7 9-15z"/></g></svg>